<?xml version="1.0" encoding="UTF-8" standalone="no"?>
<!-- Created with Inkscape (http://www.inkscape.org/) -->

<svg
   xmlns:dc="http://purl.org/dc/elements/1.1/"
   xmlns:cc="http://creativecommons.org/ns#"
   xmlns:rdf="http://www.w3.org/1999/02/22-rdf-syntax-ns#"
   xmlns:svg="http://www.w3.org/2000/svg"
   xmlns="http://www.w3.org/2000/svg"
   version="1.1"
   width="100"
   height="100"
   viewBox="0 0 100 100"
   id="svg2"
   xml:space="preserve"><metadata
     id="metadata28"><rdf:RDF><cc:Work
         rdf:about=""><dc:format>image/svg+xml</dc:format><dc:type
           rdf:resource="http://purl.org/dc/dcmitype/StillImage" /><dc:title></dc:title></cc:Work></rdf:RDF></metadata><defs
     id="defs26" /><g
     id="Captions" /><g
     id="Your_Icon"><path
       d="m 44.92,70.93 c -1.22,0.87 -2.42,1.67 -3.58,2.4 -0.6,0.37 -1.189,0.729 -1.77,1.06 -4.46,2.591 -8.36,4.04 -11.2,4.04 -1.78,0 -3.21,-0.529 -4.24,-1.56 -2.88,-2.88 -1.439,-8.67 2.48,-15.44 1.35,0.33 2.739,0.61 4.159,0.86 -3.859,6.35 -4.89,10.67 -3.81,11.75 0.32,0.32 0.94,0.39 1.41,0.39 2.22,0 5.84,-1.41 10.34,-4.18 0.58,-0.34 1.18,-0.72 1.79,-1.14 1.16,-0.761 2.38,-1.61 3.64,-2.551 0.591,-0.439 1.2,-0.899 1.811,-1.369 0.13,-0.11 0.27,-0.21 0.399,-0.32 0.381,-0.3 0.771,-0.61 1.16,-0.93 0.141,-0.11 0.28,-0.221 0.42,-0.341 0.63,-0.52 1.271,-1.05 1.92,-1.609 0.381,-0.33 0.771,-0.66 1.15,-1.01 0.49,-0.431 0.99,-0.87 1.49,-1.341 0.6,-0.54 1.2,-1.1 1.81,-1.689 0.71,-0.66 1.42,-1.351 2.13,-2.061 0.08,-0.08 0.15,-0.149 0.23,-0.229 0.08,-0.08 0.149,-0.15 0.229,-0.23 0,0.15 -0.01,0.301 -0.02,0.44 -0.03,0.689 -0.061,1.36 -0.11,2.01 -0.069,1.22 -0.16,2.39 -0.27,3.51 -0.181,0.17 -0.36,0.341 -0.55,0.511 -0.12,0.119 -0.25,0.239 -0.381,0.35 -0.5,0.46 -0.989,0.92 -1.489,1.35 -0.13,0.131 -0.271,0.25 -0.4,0.36 -0.89,0.79 -1.78,1.55 -2.67,2.29 -0.53,0.44 -1.05,0.87 -1.58,1.29 -0.92,0.74 -1.84,1.44 -2.74,2.11 C 46.09,70.1 45.5,70.52 44.92,70.93 z"
       id="path6"
       style="fill:#46b38d;fill-opacity:1" /><path
       d="m 57.08,29.07 c 1.22,-0.87 2.42,-1.67 3.58,-2.4 0.6,-0.37 1.189,-0.73 1.77,-1.06 4.46,-2.59 8.36,-4.04 11.2,-4.04 1.78,0 3.21,0.53 4.24,1.56 2.88,2.88 1.439,8.67 -2.48,15.44 -1.35,-0.33 -2.739,-0.61 -4.159,-0.86 3.859,-6.35 4.89,-10.67 3.81,-11.75 -0.32,-0.32 -0.94,-0.39 -1.41,-0.39 -2.22,0 -5.84,1.41 -10.34,4.18 -0.58,0.34 -1.18,0.72 -1.79,1.14 -1.16,0.76 -2.38,1.61 -3.64,2.55 -0.591,0.44 -1.2,0.9 -1.811,1.37 -0.13,0.11 -0.27,0.21 -0.399,0.32 -0.381,0.3 -0.771,0.61 -1.16,0.93 -0.141,0.11 -0.28,0.22 -0.42,0.34 -0.63,0.52 -1.271,1.05 -1.92,1.61 -0.381,0.33 -0.771,0.66 -1.15,1.01 -0.49,0.43 -0.99,0.87 -1.49,1.34 -0.6,0.54 -1.2,1.1 -1.81,1.69 -0.71,0.66 -1.42,1.35 -2.13,2.06 -0.08,0.08 -0.15,0.15 -0.23,0.23 -0.08,0.08 -0.149,0.15 -0.229,0.23 0,-0.15 0.01,-0.3 0.02,-0.44 0.03,-0.69 0.061,-1.36 0.11,-2.01 0.069,-1.22 0.16,-2.39 0.27,-3.51 0.181,-0.17 0.36,-0.34 0.55,-0.51 0.12,-0.12 0.25,-0.24 0.381,-0.35 0.5,-0.46 0.989,-0.92 1.489,-1.35 0.13,-0.13 0.271,-0.25 0.4,-0.36 0.89,-0.79 1.78,-1.55 2.67,-2.29 0.53,-0.44 1.05,-0.87 1.58,-1.29 0.92,-0.74 1.84,-1.44 2.74,-2.11 0.588,-0.45 1.178,-0.87 1.758,-1.28 z"
       id="path8"
       style="fill:#46b38d;fill-opacity:1" /><path
       d="m 62.48,61.48 c -0.061,0.68 -0.131,1.34 -0.2,2 -0.13,1.18 -0.28,2.35 -0.44,3.479 -0.109,0.73 -0.22,1.45 -0.34,2.15 -0.25,1.46 -0.53,2.87 -0.84,4.22 -0.16,0.689 -0.33,1.37 -0.51,2.03 C 58.14,82.9 55.07,88 51,88 46.93,88 43.86,82.9 41.85,75.36 43.01,74.66 44.191,73.88 45.401,73.04 47.15,80.23 49.48,84 51,84 c 1.52,0 3.85,-3.77 5.6,-10.96 0.17,-0.67 0.33,-1.38 0.48,-2.11 0.28,-1.35 0.55,-2.81 0.78,-4.37 0.109,-0.729 0.21,-1.479 0.3,-2.25 0.03,-0.18 0.05,-0.35 0.07,-0.529 0.06,-0.471 0.109,-0.94 0.149,-1.42 0.03,-0.19 0.05,-0.38 0.061,-0.57 0.09,-0.8 0.159,-1.63 0.22,-2.48 0.04,-0.51 0.08,-1.02 0.109,-1.54 0.04,-0.659 0.07,-1.329 0.11,-2.01 0.03,-0.8 0.061,-1.62 0.07,-2.45 C 58.98,52.34 59,51.35 59,50.33 v -0.66 c 0.1,0.11 0.2,0.22 0.3,0.33 0.46,0.51 0.91,1.01 1.34,1.5 0.811,0.91 1.57,1.8 2.29,2.67 -0.01,0.26 -0.01,0.51 -0.029,0.771 0,0.17 -0.011,0.329 -0.021,0.5 -0.02,0.67 -0.06,1.34 -0.09,2 -0.021,0.189 -0.03,0.38 -0.04,0.569 -0.07,1.17 -0.16,2.33 -0.27,3.47 z"
       id="path10"
       style="fill:#e9f745;fill-opacity:1" /><path
       d="m 39.52,38.52 c 0.061,-0.68 0.131,-1.34 0.211,-2 0.119,-1.18 0.27,-2.35 0.43,-3.48 0.109,-0.73 0.22,-1.45 0.34,-2.15 0.25,-1.46 0.53,-2.87 0.84,-4.22 0.16,-0.69 0.33,-1.37 0.51,-2.03 C 43.86,17.1 46.93,12 51,12 c 4.07,0 7.14,5.1 9.15,12.64 -1.16,0.7 -2.341,1.48 -3.551,2.32 C 54.85,19.77 52.52,16 51,16 c -1.52,0 -3.85,3.77 -5.6,10.96 -0.17,0.67 -0.33,1.38 -0.48,2.11 -0.28,1.35 -0.55,2.81 -0.78,4.37 -0.109,0.73 -0.21,1.48 -0.3,2.25 -0.03,0.18 -0.05,0.35 -0.07,0.53 -0.06,0.47 -0.109,0.94 -0.149,1.42 -0.03,0.19 -0.05,0.38 -0.061,0.57 -0.09,0.8 -0.159,1.63 -0.22,2.48 -0.04,0.51 -0.08,1.02 -0.109,1.54 -0.04,0.66 -0.07,1.33 -0.11,2.01 -0.03,0.8 -0.061,1.62 -0.07,2.45 C 43.02,47.66 43,48.65 43,49.67 v 0.66 C 42.9,50.22 42.8,50.11 42.7,50 c -0.46,-0.51 -0.91,-1.01 -1.34,-1.5 -0.82,-0.91 -1.57,-1.8 -2.29,-2.67 0.01,-0.26 0.01,-0.51 0.029,-0.77 0,-0.17 0.011,-0.33 0.021,-0.5 0.02,-0.67 0.06,-1.34 0.09,-2 0.021,-0.19 0.03,-0.38 0.04,-0.57 0.07,-1.17 0.16,-2.33 0.27,-3.47 z"
       id="path12"
       style="fill:#e9f745;fill-opacity:1" /><path
       d="m 89,50 c 0,4.08 -5.12,7.15 -12.67,9.16 C 75.61,57.98 74.83,56.79 74,55.61 81.21,53.86 85,51.519 85,50 85,48.48 81.21,46.14 74,44.39 73.34,44.22 72.65,44.07 71.93,43.92 70.571,43.63 69.111,43.37 67.55,43.14 66.821,43.03 66.08,42.93 65.31,42.84 65.13,42.81 64.96,42.79 64.781,42.77 64.31,42.71 63.831,42.66 63.35,42.62 63.17,42.59 62.981,42.57 62.79,42.56 61.99,42.47 61.16,42.4 60.31,42.34 59.8,42.3 59.29,42.26 58.77,42.23 58.111,42.19 57.441,42.16 56.76,42.12 55.96,42.09 55.14,42.06 54.3,42.05 53.33,42.02 52.34,42 51.32,42 h -0.64 c 0.11,-0.11 0.221,-0.2 0.32,-0.29 0.5,-0.47 1,-0.91 1.49,-1.35 0.92,-0.81 1.819,-1.57 2.689,-2.29 0.25,0.01 0.511,0.01 0.761,0.03 0.17,0 0.329,0.01 0.5,0.02 0.67,0.02 1.34,0.06 2,0.09 0.199,0.02 0.39,0.03 0.579,0.04 1.171,0.07 2.32,0.16 3.461,0.27 0.68,0.06 1.34,0.13 2,0.21 1.18,0.12 2.329,0.27 3.46,0.43 0.729,0.11 1.449,0.22 2.159,0.34 1.46,0.25 2.87,0.53 4.221,0.84 0.689,0.16 1.359,0.32 2.01,0.5 C 83.88,42.85 89,45.92 89,50 z"
       id="path14"
       style="fill:#84cc74;fill-opacity:1" /><path
       d="M 25.67,59.16 C 18.12,57.15 13,54.08 13,50 c 0,-4.08 5.12,-7.15 12.67,-9.16 0.72,1.18 1.5,2.37 2.33,3.55 -7.21,1.75 -11,4.08 -11,5.61 0,1.52 3.79,3.86 11,5.61 0.66,0.17 1.35,0.319 2.07,0.47 1.359,0.29 2.819,0.55 4.38,0.78 0.729,0.109 1.47,0.21 2.24,0.3 0.18,0.03 0.35,0.05 0.529,0.07 0.471,0.06 0.95,0.109 1.431,0.149 0.18,0.03 0.369,0.05 0.56,0.061 0.8,0.09 1.63,0.159 2.48,0.22 0.51,0.04 1.02,0.08 1.54,0.109 0.659,0.04 1.329,0.07 2.01,0.11 0.8,0.03 1.62,0.061 2.46,0.07 C 48.67,57.98 49.66,58 50.68,58 h 0.641 c -0.11,0.11 -0.21,0.2 -0.32,0.29 -0.5,0.47 -1,0.92 -1.49,1.35 -0.92,0.811 -1.81,1.57 -2.68,2.29 -0.26,-0.01 -0.51,-0.01 -0.771,-0.029 -0.17,0 -0.329,-0.011 -0.5,-0.021 -0.67,-0.02 -1.34,-0.06 -2,-0.09 -0.199,-0.021 -0.39,-0.03 -0.579,-0.04 -1.171,-0.07 -2.32,-0.16 -3.461,-0.27 -0.68,-0.061 -1.34,-0.131 -2,-0.2 C 36.34,61.15 35.191,61 34.06,60.84 33.33,60.73 32.61,60.62 31.9,60.5 30.44,60.25 29.03,59.97 27.679,59.66 26.99,59.5 26.32,59.34 25.67,59.16 z"
       id="path16"
       style="fill:#84cc74;fill-opacity:1" /><path
       d="m 75.39,61.43 c 3.92,6.771 5.36,12.561 2.48,15.44 -1.03,1.03 -2.46,1.56 -4.24,1.56 -2.84,0 -6.74,-1.449 -11.2,-4.04 0.33,-1.34 0.61,-2.729 0.86,-4.14 4.5,2.77 8.12,4.18 10.34,4.18 0.47,0 1.09,-0.069 1.41,-0.39 1.08,-1.08 0.05,-5.4 -3.81,-11.75 -0.351,-0.58 -0.73,-1.18 -1.131,-1.79 -0.76,-1.16 -1.6,-2.37 -2.55,-3.64 -0.43,-0.591 -0.89,-1.2 -1.37,-1.811 -0.1,-0.14 -0.21,-0.28 -0.319,-0.42 -0.301,-0.37 -0.601,-0.75 -0.92,-1.14 -0.101,-0.141 -0.221,-0.28 -0.341,-0.42 -0.51,-0.63 -1.04,-1.261 -1.609,-1.91 -0.32,-0.38 -0.66,-0.77 -1.01,-1.16 -0.431,-0.49 -0.881,-0.99 -1.341,-1.5 -0.54,-0.6 -1.109,-1.2 -1.689,-1.81 -0.66,-0.7 -1.351,-1.4 -2.061,-2.12 -0.08,-0.08 -0.149,-0.15 -0.229,-0.23 -0.08,-0.08 -0.15,-0.15 -0.23,-0.23 0.15,0 0.301,0.01 0.44,0.02 0.689,0.03 1.36,0.06 2.01,0.11 1.22,0.07 2.4,0.16 3.521,0.27 0.17,0.19 0.34,0.37 0.5,0.55 0.119,0.13 0.239,0.25 0.35,0.38 0.46,0.49 0.91,0.99 1.35,1.49 0.131,0.14 0.25,0.27 0.36,0.41 0.79,0.89 1.55,1.77 2.29,2.66 0.43,0.52 0.85,1.04 1.26,1.56 0.75,0.921 1.46,1.841 2.141,2.761 0.439,0.59 0.869,1.18 1.279,1.76 0.86,1.21 1.66,2.41 2.391,3.58 0.378,0.6 0.728,1.19 1.068,1.77 z"
       id="path18"
       style="fill:#c2e65a;fill-opacity:1" /><path
       d="M 26.61,38.57 C 22.69,31.8 21.25,26.01 24.13,23.13 c 1.03,-1.03 2.46,-1.56 4.24,-1.56 2.84,0 6.74,1.45 11.2,4.04 -0.33,1.34 -0.61,2.73 -0.86,4.14 -4.5,-2.77 -8.12,-4.18 -10.34,-4.18 -0.47,0 -1.09,0.07 -1.41,0.39 -1.08,1.08 -0.05,5.4 3.81,11.75 0.351,0.58 0.73,1.18 1.131,1.79 0.76,1.16 1.6,2.37 2.55,3.64 0.43,0.59 0.89,1.2 1.37,1.81 0.1,0.14 0.21,0.28 0.319,0.42 0.301,0.37 0.601,0.75 0.92,1.14 0.101,0.14 0.221,0.28 0.341,0.42 0.51,0.63 1.04,1.26 1.609,1.91 0.32,0.38 0.66,0.77 1.01,1.16 0.431,0.49 0.881,0.99 1.341,1.5 0.54,0.6 1.109,1.2 1.689,1.81 0.66,0.7 1.351,1.4 2.061,2.12 0.08,0.08 0.149,0.15 0.229,0.23 0.08,0.08 0.15,0.149 0.23,0.229 -0.15,0 -0.301,-0.01 -0.44,-0.02 -0.689,-0.03 -1.36,-0.061 -2.01,-0.11 -1.22,-0.069 -2.4,-0.16 -3.521,-0.27 -0.17,-0.19 -0.34,-0.37 -0.5,-0.55 -0.119,-0.131 -0.239,-0.25 -0.35,-0.381 -0.46,-0.489 -0.91,-0.989 -1.35,-1.489 -0.131,-0.141 -0.25,-0.271 -0.36,-0.41 -0.79,-0.891 -1.55,-1.77 -2.29,-2.66 -0.43,-0.52 -0.85,-1.04 -1.26,-1.56 -0.75,-0.92 -1.46,-1.84 -2.141,-2.76 -0.439,-0.59 -0.869,-1.18 -1.279,-1.76 -0.86,-1.21 -1.66,-2.41 -2.391,-3.58 C 27.3,39.74 26.95,39.15 26.61,38.57 z"
       id="path20"
       style="fill:#c2e65a;fill-opacity:1" /></g></svg>